<svg xmlns="http://www.w3.org/2000/svg" viewBox="0 0 150 36" role="img" aria-label="Bigbank">
  <title>Bigbank</title>
  <path fill="#E30613" d="M8.2 6.8h7.8c5.4 0 8.8 2.8 8.8 7.2 0 3.1-1.6 5.5-4.5 6.7 3.6 1.1 5.8 3.8 5.8 7.5 0 5.1-4.2 8.2-10.4 8.2H8.2V6.8zm6.2 11.5h1.2c2.7 0 4.2-1.2 4.2-3.2 0-1.9-1.5-3-4-3h-1.4v6.2zm0 10.6h1.6c3.1 0 4.8-1.3 4.8-3.6 0-2.1-1.6-3.4-4.5-3.4h-1.9v7zM39.5 6.8h6.2v22.4h-6.2V6.8zm16.1 0h6.5l9.9 22.4h-6.8l-1.6-3.9h-9.5l-1.6 3.9h-6.7l9.8-22.4zm1.9 13.7l-2.8-6.8-2.8 6.8h5.6zm23.4-13.7h6.2v16.4c0 4.2 2.1 6.4 6 6.4 3.8 0 5.9-2.1 5.9-6.4V6.8h6.2v16.8c0 7.5-4.3 11.6-12.1 11.6-7.9 0-12.2-4.1-12.2-11.6V6.8z"/>
</svg>
